<svg xmlns="http://www.w3.org/2000/svg" width="19.3" height="19.322" viewBox="0 0 19.3 19.322">
  <path id="_1904663-bubble-chat-comment-communication-message-talk-text_122514" data-name="1904663-bubble-chat-comment-communication-message-talk-text_122514" d="M15.888,0H2.109A2.109,2.109,0,0,0,0,2.109v9.08A2.109,2.109,0,0,0,2.109,13.3H5.382a.141.141,0,0,1,.141.141v3.576a.984.984,0,0,0,1.68.7l4.37-4.371a.141.141,0,0,1,.1-.041h4.218A2.109,2.109,0,0,0,18,11.191V2.109A2.109,2.109,0,0,0,15.888,0Zm1.265,11.189a1.266,1.266,0,0,1-1.265,1.266H11.67a.984.984,0,0,0-.7.281L6.608,17.114a.141.141,0,0,1-.24-.1V13.439a.984.984,0,0,0-.984-.984H2.109A1.266,1.266,0,0,1,.844,11.189V2.109A1.266,1.266,0,0,1,2.109.844H15.888a1.266,1.266,0,0,1,1.265,1.266Z" transform="translate(0.65 0.65)" fill="#00cfff" stroke="#00cfff" stroke-width="1.3"/>
</svg>
