<?xml version="1.0" encoding="utf-8"?>
<!-- Svg Vector Icons : http://www.onlinewebfonts.com/icon -->
<!DOCTYPE svg PUBLIC "-//W3C//DTD SVG 1.1//EN" "http://www.w3.org/Graphics/SVG/1.1/DTD/svg11.dtd">
<svg version="1.1" xmlns="http://www.w3.org/2000/svg" xmlns:xlink="http://www.w3.org/1999/xlink" x="0px" y="0px" viewBox="0 0 1000 1000" enable-background="new 0 0 1000 1000" xml:space="preserve">
<metadata> Svg Vector Icons : http://www.onlinewebfonts.com/icon </metadata>
<g><path d="M973.1,173.4c-10.4-5.6-23.1-4.9-32.8,1.7c-47.3,31.9-92.2,53.2-158.1,53.2c-28.9,0-84.7-12.1-104.9-17c-35-10.5-71.4-15.8-108.2-15.8c-21,0-36.5,1.8-49.8,5.2c-5-30.1-31.1-53.2-62.7-53.2c-35.1,0-63.7,28.6-63.7,63.7v577.8c0,35.1,28.6,63.7,63.7,63.7c35.1,0,63.7-28.6,63.7-63.7V641.2c12.7-6.1,24.3-8.5,48.8-8.5c30.8,0,61.3,4.5,90.5,13.3c0.5,0.2,1.1,0.3,1.7,0.5c7.9,2,78.6,19,120.9,19c87,0,144.6-30.8,193.9-64.1c8.8-5.9,14-15.8,14-26.4V201.6C990,189.8,983.5,179,973.1,173.4z M926.2,557.8c-42.4,26.8-84.7,44-144.1,44c-28.9,0-84.7-12.1-104.9-17c-35-10.5-71.4-15.8-108.2-15.8c-20.4,0-35.7,1.7-48.8,4.9v-306c12.7-6.1,24.3-8.5,48.8-8.5c30.8,0,61.3,4.5,90.5,13.4c0.5,0.2,1.1,0.3,1.6,0.5c7.9,2,78.6,19.1,120.9,19.1c59.5,0,105.3-14.5,144.1-34.3V557.8z"/><path d="M557.4,271c-4.9,0.3-9.9,0.8-14.8,1.3c-4.4,0.5-7.6,4.4-7.1,8.8c0.4,4.1,3.9,7.1,7.9,7.1c0.3,0,0.6,0,0.9,0c4.7-0.5,9.4-0.9,14.1-1.2c4.4-0.3,7.7-4.1,7.5-8.5C565.6,274.1,561.5,270.9,557.4,271z"/><path d="M719.1,293.3c-20.5-4.1-36.1-7.9-36.2-7.9c-29.9-9.1-61.1-14.1-92.6-15c-0.1,0-0.2,0-0.2,0c-4.3,0-7.9,3.4-8,7.8c-0.1,4.4,3.4,8.1,7.8,8.2c30.1,0.8,59.9,5.6,88.8,14.4c0,0,16.1,3.9,37.3,8.2c0.5,0.1,1,0.1,1.6,0.1c3.7,0,7-2.6,7.8-6.4C726.2,298.4,723.4,294.1,719.1,293.3z"/><path d="M54.2,171.3c-24.4,0-44.2,19.8-44.2,44.2c0,24.4,19.8,44.2,44.2,44.2c24.4,0,44.2-19.8,44.2-44.2C98.4,191.1,78.6,171.3,54.2,171.3z"/><path d="M54.2,455.8C29.8,455.8,10,475.6,10,500c0,24.4,19.8,44.2,44.2,44.2c24.4,0,44.2-19.8,44.2-44.2C98.4,475.6,78.6,455.8,54.2,455.8z"/><path d="M54.2,740.3c-24.4,0-44.2,19.8-44.2,44.2c0,24.4,19.8,44.2,44.2,44.2c24.4,0,44.2-19.8,44.2-44.2C98.4,760.1,78.6,740.3,54.2,740.3z"/><path d="M312,171.3H167.1c-22,0-39.9,17.8-39.9,39.9v8.6c0,22,17.8,39.9,39.9,39.9H312c22,0,39.9-17.8,39.9-39.9v-8.6C351.9,189.2,334,171.3,312,171.3z"/><path d="M312,455.8H167.1c-22,0-39.9,17.9-39.9,39.9v8.6c0,22,17.8,39.9,39.9,39.9H312c22,0,39.9-17.9,39.9-39.9v-8.6C351.9,473.7,334,455.8,312,455.8z"/><path d="M312,740.3H167.1c-22,0-39.9,17.8-39.9,39.9v8.6c0,22,17.8,39.9,39.9,39.9H312c22,0,39.9-17.8,39.9-39.9v-8.6C351.9,758.1,334,740.3,312,740.3z"/></g>
</svg>