<svg xmlns="http://www.w3.org/2000/svg" width="16" height="17.057" viewBox="0 0 16 17.057">
  <path id="Shape" d="M16.333,6.686h1.778A.853.853,0,0,1,19,7.5v9.747a.853.853,0,0,1-.889.812H3.889A.853.853,0,0,1,3,17.245V7.5a.853.853,0,0,1,.889-.812H5.667V5.874A5.119,5.119,0,0,1,11,1a5.119,5.119,0,0,1,5.333,4.874ZM4.778,8.31v8.123H17.222V8.31Zm5.333,3.249h1.778v1.625H10.111Zm-3.556,0H8.333v1.625H6.556Zm7.111,0h1.778v1.625H13.667Zm.889-4.874V5.874A3.413,3.413,0,0,0,11,2.625,3.413,3.413,0,0,0,7.444,5.874v.812Z" transform="translate(-3 -1)" fill="#fff"/>
</svg>
