<svg xmlns="http://www.w3.org/2000/svg" width="18.879" height="17.069" viewBox="0 0 18.879 17.069">
  <g id="clock_hour_minute_second_time_timer_watch_icon_123193" transform="translate(0 -14.931)">
    <g id="Layer_2" data-name="Layer 2" transform="translate(-3 11.931)">
      <path id="Path_21112" data-name="Path 21112" d="M12.439,20.069C7.226,20.069,3,16.248,3,11.535S7.226,3,12.439,3s9.439,3.821,9.439,8.535-4.226,8.535-9.439,8.535Zm0-15.756c-4.411,0-7.987,3.233-7.987,7.222s3.576,7.222,7.987,7.222,7.987-3.233,7.987-7.222S16.851,4.313,12.439,4.313Z" fill="#757575"/>
      <path id="Path_21113" data-name="Path 21113" d="M19.19,18.1a.613.613,0,0,1-.458-.208l-3.545-3.939A.759.759,0,0,1,15,13.446V7.716a.648.648,0,1,1,1.289,0v5.436l3.358,3.724a.773.773,0,0,1,0,1.017.613.613,0,0,1-.458.208Z" transform="translate(-3.172 -1.449)" fill="#757575"/>
    </g>
    <g id="frame" transform="translate(0 14.812)">
      <rect id="Rectangle_1636" data-name="Rectangle 1636" width="18" height="17" transform="translate(0 0.188)" fill="none"/>
    </g>
  </g>
</svg>
