<svg xmlns="http://www.w3.org/2000/svg" width="13.951" height="14.814" viewBox="0 0 13.951 14.814">
  <g id="paper-plane" transform="translate(0 0)">
    <path id="Path_417" data-name="Path 417" d="M8.75,17.612v3.806a.615.615,0,0,0,1.111.364l2.226-3.03Z" transform="translate(-4.091 -7.219)" fill="#757575"/>
    <path id="Path_418" data-name="Path 418" d="M13.768.086a.415.415,0,0,0-.455-.033L.234,7.309A.471.471,0,0,0,0,7.755a.46.46,0,0,0,.294.4l3.636,1.32,7.743-7.035-5.992,7.67,6.094,2.213a.414.414,0,0,0,.367-.043.468.468,0,0,0,.2-.327L13.946.532a.477.477,0,0,0-.178-.446Z" transform="translate(0)" fill="#757575"/>
  </g>
</svg>
