<svg id="google" xmlns="http://www.w3.org/2000/svg" width="20.296" height="20.296" viewBox="0 0 20.296 20.296">
  <path id="Path_9805" data-name="Path 9805" d="M276.072,211.479h-8.279a.662.662,0,0,0-.662.662v2.645a.662.662,0,0,0,.662.662h4.662a6.224,6.224,0,0,1-2.679,3.139l1.988,3.441a9.951,9.951,0,0,0,5.074-8.7,6.706,6.706,0,0,0-.114-1.3A.665.665,0,0,0,276.072,211.479Z" transform="translate(-256.542 -203.096)" fill="#167ee6"/>
  <path id="Path_9806" data-name="Path 9806" d="M43.195,336.938a6.176,6.176,0,0,1-5.343-3.091l-3.441,1.983a10.14,10.14,0,0,0,13.858,3.719v0L46.281,336.1A6.131,6.131,0,0,1,43.195,336.938Z" transform="translate(-33.047 -320.613)" fill="#12b347"/>
  <path id="Path_9807" data-name="Path 9807" d="M261.074,394.225v0l-1.988-3.441a6.131,6.131,0,0,1-3.086.834v3.971A10.131,10.131,0,0,0,261.074,394.225Z" transform="translate(-245.852 -375.288)" fill="#0f993e"/>
  <path id="Path_9808" data-name="Path 9808" d="M3.971,133.188a6.131,6.131,0,0,1,.834-3.086l-3.441-1.983a10.1,10.1,0,0,0,0,10.139l3.441-1.983A6.131,6.131,0,0,1,3.971,133.188Z" transform="translate(0 -123.04)" fill="#ffd500"/>
  <path id="Path_9809" data-name="Path 9809" d="M43.195,3.971a6.149,6.149,0,0,1,3.922,1.408A.659.659,0,0,0,48,5.339l1.874-1.874a.667.667,0,0,0-.038-.975A10.126,10.126,0,0,0,34.411,5.079l3.441,1.983A6.176,6.176,0,0,1,43.195,3.971Z" transform="translate(-33.047)" fill="#ff4b26"/>
  <path id="Path_9810" data-name="Path 9810" d="M259.922,5.379a.659.659,0,0,0,.887-.04l1.874-1.874a.667.667,0,0,0-.038-.975A10.117,10.117,0,0,0,256,0V3.971A6.149,6.149,0,0,1,259.922,5.379Z" transform="translate(-245.852)" fill="#d93f21"/>
</svg>
