<svg xmlns="http://www.w3.org/2000/svg" width="18.397" height="21.5" viewBox="0 0 18.397 21.5">
  <path id="Shape" d="M12,14v2a6,6,0,0,0-6,6H4a8,8,0,0,1,8-8Zm0-1a6,6,0,1,1,6-6A6,6,0,0,1,12,13Zm0-2A4,4,0,1,0,8,7,4,4,0,0,0,12,11Zm2.6,7.812a3.51,3.51,0,0,1,0-1.623l-.992-.573,1-1.732.992.573a3.5,3.5,0,0,1,1.4-.812V13.5h2v1.145a3.492,3.492,0,0,1,1.405.812l.992-.573,1,1.732-.992.573a3.51,3.51,0,0,1,0,1.622l.992.573-1,1.732-.992-.573A3.5,3.5,0,0,1,19,21.355V22.5H17V21.355a3.5,3.5,0,0,1-1.4-.812l-.992.573-1-1.732.992-.572ZM18,19.5A1.5,1.5,0,1,0,16.5,18,1.5,1.5,0,0,0,18,19.5Z" transform="translate(-4 -1)" fill="#fff"/>
</svg>
