<svg xmlns="http://www.w3.org/2000/svg" width="18.5" height="18.5" viewBox="0 0 18.5 18.5">
  <g id="Calque_2" data-name="Calque 2" transform="translate(0.25 0.25)">
    <g id="Calque_1" data-name="Calque 1">
      <path id="Path_21106" data-name="Path 21106" d="M9,1.186a1.263,1.263,0,0,1,.92.443l6.744,7.354v7.663a.176.176,0,0,1-.186.164H12.3a.164.164,0,0,1-.109-.04.129.129,0,0,1-.045-.1V12.7a1.723,1.723,0,0,0-1.814-1.609H7.671A1.723,1.723,0,0,0,5.856,12.7v3.972a.145.145,0,0,1-.147.137H1.523a.175.175,0,0,1-.185-.164V8.986L8.082,1.631A1.259,1.259,0,0,1,9,1.186M9,0A2.641,2.641,0,0,0,7.047.881L.032,8.529A.116.116,0,0,0,0,8.608V16.65A1.444,1.444,0,0,0,1.523,18H5.709A1.415,1.415,0,0,0,7.2,16.677V12.7a.451.451,0,0,1,.47-.423h2.655a.452.452,0,0,1,.476.423v3.972A1.415,1.415,0,0,0,12.295,18h4.182A1.445,1.445,0,0,0,18,16.649V8.607a.116.116,0,0,0-.032-.079L10.96.881A2.645,2.645,0,0,0,9,0Z" fill="#fff" stroke="#fff" stroke-width="0.5"/>
    </g>
  </g>
</svg>
