<svg xmlns="http://www.w3.org/2000/svg" width="47.792" height="47.792" viewBox="0 0 47.792 47.792">
  <path id="Shape" d="M8.31,24.507l5.31-5.31,14.6,14.6,9.293-9.293,7.965,7.965V8.31H8.31Zm0,7.511V45.482h8.231l7.928-7.926L13.621,26.708ZM24.053,45.482h21.43v-5.5l-7.965-7.965ZM5.655,3H48.137a2.655,2.655,0,0,1,2.655,2.655V48.137a2.655,2.655,0,0,1-2.655,2.655H5.655A2.655,2.655,0,0,1,3,48.137V5.655A2.655,2.655,0,0,1,5.655,3ZM36.189,21.586A3.983,3.983,0,1,1,40.172,17.6,3.983,3.983,0,0,1,36.189,21.586Z" transform="translate(-3 -3)" fill="#9f9f9f" opacity="0.2"/>
</svg>
