<svg xmlns="http://www.w3.org/2000/svg" width="13.052" height="15.227" viewBox="0 0 13.052 15.227">
  <path id="Icon_metro-language" data-name="Icon metro-language" d="M10.327,11.363q-.008.025-.106,0t-.268-.1l-.17-.076a5.091,5.091,0,0,1-.739-.416q-.059-.042-.348-.268t-.323-.242A14.476,14.476,0,0,1,7.234,11.8a6.317,6.317,0,0,1-.892.935.673.673,0,0,1-.166.034.327.327,0,0,1-.157,0q.051-.034.7-.782.178-.2.727-.977a11.88,11.88,0,0,0,.667-1q.144-.255.433-.837a6.624,6.624,0,0,0,.306-.659,6.983,6.983,0,0,0-.935.28q-.068.017-.234.064l-.293.081a1.456,1.456,0,0,0-.144.042.144.144,0,0,0-.017.089.189.189,0,0,1-.008.081q-.042.085-.263.127a.685.685,0,0,1-.4,0,.358.358,0,0,1-.238-.178.432.432,0,0,1-.042-.2,1.642,1.642,0,0,1,.208-.042,2.537,2.537,0,0,0,.251-.051q.493-.136.892-.272.85-.3.867-.3a1.885,1.885,0,0,0,.365-.166,3.844,3.844,0,0,1,.374-.183q.076-.025.183-.068t.123-.047a.114.114,0,0,1,.051,0,.967.967,0,0,1-.009.28,1.809,1.809,0,0,1-.106.229q-.106.212-.225.455T9.1,9.027a12.744,12.744,0,0,1-.654,1.113l.544.238q.1.051.633.272l.574.238q.034.008.089.217a.644.644,0,0,1,.038.259ZM8.585,7.234a.345.345,0,0,1-.034.238.77.77,0,0,1-.425.323,1.364,1.364,0,0,1-.51.1A.7.7,0,0,1,7.2,7.676a.639.639,0,0,1-.153-.348L7.056,7.3a.364.364,0,0,0,.166.042.739.739,0,0,0,.225,0q.085-.017.493-.136a2.426,2.426,0,0,1,.467-.119.168.168,0,0,1,.178.144Zm5.931,1.1.535,1.929L13.87,9.9ZM5.1,15.128,11,13.156V4.387L5.1,6.367v8.761Zm10.545-2.694.867.263L14.975,7.115l-.85-.263L12.29,11.406l.867.263.382-.935,1.793.552ZM11.372,4.26l4.869,1.563V2.594ZM14.015,15.5l1.343.11-.459,1.36-.34-.561a6.3,6.3,0,0,1-2.345.918,4.072,4.072,0,0,1-.773.1h-.714a5.743,5.743,0,0,1-1.7-.331,5.643,5.643,0,0,1-1.559-.722.177.177,0,0,1-.068-.136.164.164,0,0,1,.042-.115.142.142,0,0,1,.11-.047.478.478,0,0,1,.153.064l.259.14.174.093A7.529,7.529,0,0,0,9.5,16.9a4.951,4.951,0,0,0,1.338.208,7.251,7.251,0,0,0,1.419-.123,7,7,0,0,0,1.334-.429q.127-.059.259-.132l.289-.161q.157-.089.242-.14Zm3.807-9.168V15.5l-6.577-2.09q-.119.051-3.186,1.083T4.931,15.527a.154.154,0,0,1-.153-.11.065.065,0,0,0-.008-.025V6.231A.379.379,0,0,1,4.8,6.146a.382.382,0,0,1,.17-.093q.9-.3,1.266-.425V2.365l4.741,1.682q.017,0,1.364-.467t2.685-.922Q16.369,2.2,16.4,2.2q.17,0,.17.178V5.934Z" transform="translate(-4.77 -2.203)" fill="#d00010"/>
</svg>
