<svg xmlns="http://www.w3.org/2000/svg" width="11.756" height="15.554" viewBox="0 0 11.756 15.554">
  <g id="Group_155" data-name="Group 155" transform="translate(16 -1.647)">
    <path id="Path_419" data-name="Path 419" d="M65.835,5.968h-.669v-1.5a4.431,4.431,0,1,0-8.862,0v1.5h-.416a1.011,1.011,0,0,0-1.031.9v7.777a1.011,1.011,0,0,0,1.031.9h9.947a.8.8,0,0,0,.778-.9V6.873A.808.808,0,0,0,65.835,5.968Zm-4.648,5.968a.543.543,0,1,1-1.085,0V10.671a.543.543,0,1,1,1.085,0Zm2.894-5.968H57.389v-1.5a3.346,3.346,0,1,1,6.692,0Z" transform="translate(-70.857 1.647)" fill="#9e9e9e"/>
  </g>
</svg>
