<svg xmlns="http://www.w3.org/2000/svg" width="12.054" height="15.821" viewBox="0 0 12.054 15.821">
  <path id="Icon_material-lock-outline" data-name="Icon material-lock-outline" d="M12.027,13.554a1.507,1.507,0,1,0-1.507-1.507A1.511,1.511,0,0,0,12.027,13.554Zm4.52-6.78h-.753V5.267a3.767,3.767,0,1,0-7.534,0V6.774H7.507A1.511,1.511,0,0,0,6,8.28v7.534a1.511,1.511,0,0,0,1.507,1.507h9.04a1.511,1.511,0,0,0,1.507-1.507V8.28A1.511,1.511,0,0,0,16.547,6.774ZM9.691,5.267a2.335,2.335,0,0,1,4.671,0V6.774H9.691Zm6.856,10.547H7.507V8.28h9.04Z" transform="translate(-6 -1.5)" fill="#d00010"/>
</svg>
