<?xml version="1.0" encoding="UTF-8" standalone="no"?>
<!-- Created with Inkscape (http://www.inkscape.org/) -->

<svg
   version="1.1"
   id="svg28"
   width="2000"
   height="2000"
   viewBox="0 0 2000 2000"
   sodipodi:docname="logo6 big size (black background) 2.svg"
   inkscape:export-filename="C:\Users\lrnovo\Documents\Projets\Mystud\img mystud\Logo grande taille (fond blanc).png"
   inkscape:export-xdpi="96"
   inkscape:export-ydpi="96"
   inkscape:version="1.1 (c68e22c387, 2021-05-23)"
   xmlns:inkscape="http://www.inkscape.org/namespaces/inkscape"
   xmlns:sodipodi="http://sodipodi.sourceforge.net/DTD/sodipodi-0.dtd"
   xmlns:xlink="http://www.w3.org/1999/xlink"
   xmlns="http://www.w3.org/2000/svg"
   xmlns:svg="http://www.w3.org/2000/svg"
   xmlns:rdf="http://www.w3.org/1999/02/22-rdf-syntax-ns#"
   xmlns:cc="http://creativecommons.org/ns#"
   xmlns:dc="http://purl.org/dc/elements/1.1/">
  <defs
     id="defs32">
    <rect
       x="-217.99998"
       y="-19.999998"
       width="18.999998"
       height="75"
       id="rect5160" />
    <linearGradient
       inkscape:collect="always"
       id="linearGradient72921">
      <stop
         style="stop-color:#000080;stop-opacity:1;"
         offset="0"
         id="stop72917" />
      <stop
         style="stop-color:#00a7e2;stop-opacity:0.88235295"
         offset="1"
         id="stop72919" />
    </linearGradient>
    <linearGradient
       inkscape:collect="always"
       id="linearGradient53116">
      <stop
         style="stop-color:#000080;stop-opacity:1;"
         offset="0"
         id="stop53112" />
      <stop
         style="stop-color:#0681d5;stop-opacity:0"
         offset="1"
         id="stop53114" />
    </linearGradient>
    <rect
       x="-310"
       y="355"
       width="202"
       height="45"
       id="rect43607" />
    <rect
       x="-447"
       y="350"
       width="201"
       height="41"
       id="rect35231" />
    <rect
       x="-539"
       y="206"
       width="204"
       height="64"
       id="rect24117" />
    <linearGradient
       inkscape:collect="always"
       xlink:href="#linearGradient53116"
       id="linearGradient53118"
       x1="233.5"
       y1="253"
       x2="232.5"
       y2="173.5"
       gradientUnits="userSpaceOnUse"
       gradientTransform="translate(-120.79289,-49.5)" />
    <linearGradient
       inkscape:collect="always"
       xlink:href="#linearGradient72921"
       id="linearGradient72923"
       x1="231"
       y1="204"
       x2="232.7168"
       y2="112.07812"
       gradientUnits="userSpaceOnUse"
       gradientTransform="translate(-121.58579,-46.035534)" />
  </defs>
  <sodipodi:namedview
     id="namedview30"
     pagecolor="#ffffff"
     bordercolor="#666666"
     borderopacity="1.0"
     inkscape:pageshadow="2"
     inkscape:pageopacity="0.0"
     inkscape:pagecheckerboard="0"
     showgrid="false"
     inkscape:zoom="0.1767767"
     inkscape:cx="390.32293"
     inkscape:cy="995.60632"
     inkscape:window-width="1366"
     inkscape:window-height="706"
     inkscape:window-x="-8"
     inkscape:window-y="-8"
     inkscape:window-maximized="1"
     inkscape:current-layer="g34"
     width="401px"
     inkscape:snap-global="true" />
  <g
     inkscape:groupmode="layer"
     inkscape:label="Image"
     id="g34">
    <text
       xml:space="preserve"
       id="text35229"
       style="font-style:normal;font-weight:normal;font-size:40px;line-height:1.25;font-family:sans-serif;white-space:pre;shape-inside:url(#rect35231);fill:#000000;fill-opacity:1;stroke:none" />
    <text
       xml:space="preserve"
       id="text43605"
       style="font-style:normal;font-weight:normal;font-size:40px;line-height:1.25;font-family:sans-serif;white-space:pre;shape-inside:url(#rect43607);fill:#000000;fill-opacity:1;stroke:none" />
    <g
       id="g111">
      <g
         id="g130"
         transform="matrix(5.9665511,0,0,5.8688306,-142.47542,-123.74735)">
        <g
           id="g35323">
          <g
             id="g35336"
             transform="translate(-3.5355339,6.363961)">
            <text
               xml:space="preserve"
               id="text24115"
               style="font-style:normal;font-variant:normal;font-weight:normal;font-stretch:normal;font-size:40px;line-height:1.25;font-family:'Browallia New';-inkscape-font-specification:'Browallia New';white-space:pre;shape-inside:url(#rect24117);fill:#000080;fill-opacity:1;stroke:none"
               transform="matrix(1.3967441,0,0,1,827.7189,50.899495)"><tspan
                 x="-539"
                 y="255.02499"
                 id="tspan978"><tspan
   style="font-size:53.3333px;font-family:'Bauhaus 93';-inkscape-font-specification:'Bauhaus 93, '"
   id="tspan976">MyStud</tspan>
</tspan><tspan
                 x="-539"
                 y="304.76221"
                 id="tspan982"><tspan
                   dx="0 21.757812"
                   id="tspan980">M
</tspan></tspan><tspan
                 x="-539"
                 y="354.76221"
                 id="tspan984">
</tspan><tspan
                 x="-539"
                 y="404.76221"
                 id="tspan988"><tspan
                   dx="0 18.847656 17.421875"
                   id="tspan986">wE
</tspan></tspan><tspan
                 x="-539"
                 y="454.76221"
                 id="tspan990">
</tspan></text>
            <text
               xml:space="preserve"
               style="font-style:normal;font-weight:normal;font-size:19.2365px;line-height:1.25;font-family:sans-serif;fill:#000000;fill-opacity:1;stroke:none;stroke-width:0.515263"
               x="86.624886"
               y="397.87866"
               id="text44141"
               transform="scale(1.1768645,0.8497155)"><tspan
                 sodipodi:role="line"
                 id="tspan44139"
                 x="86.624886"
                 y="397.87866"
                 style="fill:#ffffff;stroke-width:0.515263">We live in music</tspan></text>
          </g>
        </g>
        <g
           id="g36"
           transform="translate(80.195748,33)">
          <path
             id="path4483-8"
             style="fill:url(#linearGradient72923);fill-opacity:1"
             d="m 111.13101,46.542576 c -2.67921,-0.10798 -5.08006,1.05079 -7.28711,3.49805 -1.82366,2.02216 -2.04408,4.02283 -2.5,22.70313 l -0.5,20.48633 -2.804686,2.41016 c -7.41871,6.373674 -14.69531,0.38068 -14.69531,-12.10547 0,-6.04625 -1.89475,-10.82156 -4.94336,-12.45313 -3.51926,-1.88345 -8.59602,-1.21648 -11.29688,1.48438 -2.99061,2.99061 -3.75976,6.26583 -3.75976,16.02929 0,4.01127 -0.27945,8.02178 -0.6211,8.91211 -1.02678,2.675734 -6.22138,4.796274 -10.00781,4.085944 -5.9037,-1.10756 -6.83034,-3.823494 -7.16016,-20.994144 -0.15897,-8.27584 -0.75648,-15.98453 -1.32812,-17.12891 -0.57163,-1.14438 -2.36582,-2.86386 -3.98828,-3.82227 -3.87719,-2.29031 -8.08659,-1.34408 -11.36719,2.55469 l -2.52734,3.00195 v 47.347664 47.34571 l 2.52734,3.0039 c 3.2806,3.89875 7.49,4.84304 11.36719,2.55273 1.62246,-0.9584 3.41665,-2.67788 3.98828,-3.82227 0.57164,-1.14437 1.16915,-8.85111 1.32812,-17.12694 0.32981,-17.17066 1.25646,-19.88856 7.16016,-20.99609 4.23149,-0.79383 9.41295,1.68192 10.06836,4.81054 0.25715,1.22749 0.6272,6.39205 0.82227,11.47657 0.32961,8.59151 0.5584,9.45689 3.23437,12.25 4.08563,4.26449 9.56391,4.22285 13.60352,-0.10158 2.57845,-2.76024 2.90039,-3.8198 2.90039,-9.53125 0,-12.45095 5.1726,-17.97496 13.34375,-14.25195 4.093556,1.86515 4.656146,4.79002 4.660146,24.18751 0.003,16.44677 0.19648,18.51864 2.00586,21.48633 1.10142,1.80651 3.01403,3.69137 4.24805,4.1875 2.97048,1.19425 2.96955,1.19336 6.52734,-0.0469 6.03772,-2.10476 6.65822,-4.32151 7.24805,-25.92382 0.29283,-10.72501 0.87977,-20.22725 1.30469,-21.11524 0.83526,-1.74554 4.83382,-3.88477 7.25976,-3.88477 0.82644,0 2.80917,0.67411 4.40625,1.5 3.44142,1.77963 4.98224,6.31153 4.99024,14.67188 0.005,4.63964 0.47849,6.23384 2.5957,8.75 3.68452,4.37883 9.40372,4.36624 13.50977,-0.0293 2.72636,-2.91857 2.90039,-3.61273 2.90039,-11.53125 0,-12.05524 2.71792,-17.36133 8.88867,-17.36133 2.88183,0 6.8707,1.99431 7.76953,3.88476 0.42221,0.888 1.00914,8.67291 1.30469,17.30079 0.53727,15.68465 0.53797,15.68753 3.47461,18.75 3.92096,4.08896 8.32623,4.13982 12.79687,0.14649 l 3.26563,-2.91602 0.30859,-43.33399 c 0.16964,-23.833094 0.0299,-45.243244 -0.31055,-47.578134 -0.8672,-5.94756 -4.69773,-10.2539 -9.12109,-10.2539 -4.45062,0 -7.94919,2.33767 -9.30078,6.21484 -0.59115,1.69578 -1.07617,9.06967 -1.07617,16.38673 0,14.29885 -0.77671,17.51946 -4.65625,19.287104 -8.4949,3.87054 -13.34375,-1.538297 -13.34375,-14.888684 0,-11.86452 -2.67428,-15.99999 -10.34571,-15.99999 -5.37978,0 -8.65315,4.46946 -8.66015,11.82617 -0.0103,10.45226 -3.16272,16.17383 -8.91211,16.17383 -2.85287,-10e-6 -6.84292,-2.00335 -7.74414,-3.88672 -0.42492,-0.888 -1.01186,-10.38828 -1.30469,-21.11329 -0.59366,-21.74261 -1.21909,-23.91724 -7.4707,-25.98046 -0.9581,-0.3162 -1.88233,-0.4933 -2.77539,-0.5293 z"
             sodipodi:nodetypes="sssccssssssssscccccsssssssssssssssssscssssssscccssssssscssssss" />
          <path
             id="path52489"
             style="fill:#00a7e2;fill-opacity:0.882114"
             d="m 111.12883,7.8960713 c -1.68616,-0.102716 -3.46939,0.341552 -5.38477,1.3320311 -3.79635,1.9631666 -5.15293,5.5097766 -5.11133,13.3730466 0.0387,7.32812 1.40513,10.77193 5.07618,12.80664 3.63414,2.01425 7.47737,1.65341 10.55078,-0.99023 2.37132,-2.03972 2.86104,-3.38094 3.37695,-9.25 0.73697,-8.38397 -0.29003,-12.630549 -3.70703,-15.3183626 -1.52568,-1.200099 -3.11463,-1.8504091 -4.80078,-1.9531251 z M 71.597583,30.927319 c -1.7906,0.24538 -3.45083,1.17349 -5.07617,2.79883 -2.7804,2.7804 -2.92383,3.34668 -2.92383,11.57813 0,8.23144 0.14343,8.79577 2.92383,11.57617 3.25068,3.25068 6.64335,3.71561 10.93164,1.49804 3.75046,-1.93943 5.14453,-5.48266 5.14453,-13.07421 0,-7.59156 -1.39407,-11.13674 -5.14453,-13.07618 -2.14415,-1.10878 -4.06487,-1.54616 -5.85547,-1.30078 z m 76.208977,0.36914 c -0.89219,0.0363 -1.81589,0.21197 -2.77148,0.52735 -5.01376,1.65469 -6.4375,4.69091 -6.4375,13.72265 0,8.36419 1.32232,11.63726 5.35742,13.26563 5.05988,2.04191 10.62526,-0.13915 12.61523,-4.94336 1.89723,-4.58031 0.9729,-16.36264 -1.5,-19.10742 -2.18529,-2.42556 -4.5871,-3.57387 -7.26367,-3.46485 z"
             sodipodi:nodetypes="sscssssssssssssssssssss"
             inkscape:export-filename="C:\Users\lrnovo\Documents\Projets\Mystud\img mystud\vvv.png"
             inkscape:export-xdpi="96"
             inkscape:export-ydpi="96" />
          <path
             id="path4483-4"
             style="opacity:1;fill:url(#linearGradient53118);fill-opacity:1"
             d="m 149.06843,164.42433 c -2.17483,-0.0826 -4.396,0.78444 -6.5625,2.60743 -2.99003,2.51597 -3.07812,2.82833 -3.07812,11.0664 0,9.67361 0.87461,11.94862 5.33008,13.88672 4.0474,1.76062 4.23453,1.75909 8.13086,-0.0898 4.33703,-2.05806 5.53906,-5.08043 5.53906,-13.92188 0,-6.90323 -0.19648,-7.57342 -3.07617,-10.45312 -1.98054,-1.98054 -4.10838,-3.01309 -6.28321,-3.09571 z m -75.375003,0.041 c -5.25015,-0.0361 -9.11575,4.26661 -9.86523,10.97852 -0.86923,7.78424 0.89987,13.59151 4.90039,16.08398 4.15737,2.59019 8.3483,1.85452 11.94922,-2.09766 2.45454,-2.69398 2.75,-3.77585 2.75,-10.06836 0,-10.08147 -3.11673,-14.85098 -9.73438,-14.89648 z m 37.365243,22.92383 c -1.56732,-0.0658 -3.16954,0.27264 -4.68555,1.08398 -3.28242,1.7567 -4.94531,6.39031 -4.94531,13.78516 0,7.40238 1.90508,11.35027 6.38867,13.24219 3.23034,1.36309 7.86843,0.22063 10.29687,-2.53711 2.58161,-2.93168 3.80732,-9.74644 2.87305,-15.97657 -0.83527,-5.56995 -5.22579,-9.40034 -9.92773,-9.59765 z"
             sodipodi:nodetypes="ssssssssssssssssssssss"
             inkscape:export-filename="C:\Users\lrnovo\Documents\Projets\Mystud\img mystud\vvv.png"
             inkscape:export-xdpi="96"
             inkscape:export-ydpi="96" />
        </g>
      </g>
    </g>
    <text
       xml:space="preserve"
       id="text5158"
       style="font-style:normal;font-variant:normal;font-weight:normal;font-stretch:normal;font-size:40px;line-height:1.25;font-family:Aharoni;-inkscape-font-specification:Aharoni;white-space:pre;shape-inside:url(#rect5160);fill:#000000;fill-opacity:1;stroke:none" />
  </g>
  <metadata
     id="metadata39">
    <rdf:RDF>
      <cc:Work
         rdf:about="">
        <dc:subject>
          <rdf:Bag>
            <rdf:li>Studio de musique</rdf:li>
            <rdf:li>studio enregistrement</rdf:li>
            <rdf:li>home studio</rdf:li>
            <rdf:li>mixage</rdf:li>
            <rdf:li>mastering</rdf:li>
          </rdf:Bag>
        </dc:subject>
      </cc:Work>
    </rdf:RDF>
  </metadata>
</svg>
