<svg xmlns="http://www.w3.org/2000/svg" width="13.055" height="15.91" viewBox="0 0 13.055 15.91">
  <path id="Icon_material-notifications-none" data-name="Icon material-notifications-none" d="M12.527,19.66a1.637,1.637,0,0,0,1.632-1.632H10.9A1.637,1.637,0,0,0,12.527,19.66Zm4.9-4.9v-4.08a4.963,4.963,0,0,0-3.672-5.157V4.974a1.224,1.224,0,0,0-2.448,0v.555a4.965,4.965,0,0,0-3.672,5.157v4.08L6,16.4v.816H19.055V16.4Zm-1.632.816H9.264v-4.9c0-2.023,1.232-3.672,3.264-3.672s3.264,1.648,3.264,3.672Z" transform="translate(-6 -3.75)" fill="#d00010"/>
</svg>
