<svg xmlns="http://www.w3.org/2000/svg" xmlns:xlink="http://www.w3.org/1999/xlink" width="40" height="34" viewBox="0 0 40 34">
  <defs>
    <linearGradient id="linear-gradient" x1="0.5" x2="0.5" y2="1" gradientUnits="objectBoundingBox">
      <stop offset="0" stop-color="#0681d5"/>
      <stop offset="1" stop-color="navy"/>
    </linearGradient>
  </defs>
  <g id="Notification" transform="translate(0 -0.432)">
    <circle id="Ellipse_74" data-name="Ellipse 74" cx="17" cy="17" r="17" transform="translate(0 0.432)" fill="#fff"/>
    <g id="notification-2" data-name="notification" transform="translate(9.5 8.558)">
      <g id="Group_729" data-name="Group 729" transform="translate(0 2.545)">
        <g id="Group_728" data-name="Group 728" transform="translate(0)">
          <path id="Path_21036" data-name="Path 21036" d="M57.15,86.842,55.9,84.761a6.186,6.186,0,0,1-.881-3.181V79.757a5.09,5.09,0,0,0-10.18,0V81.58a6.186,6.186,0,0,1-.881,3.181l-1.249,2.081a.363.363,0,0,0,.312.55H56.838a.363.363,0,0,0,.312-.55Zm-13.486-.177.918-1.531a6.907,6.907,0,0,0,.985-3.554V79.757a4.363,4.363,0,0,1,8.726,0V81.58a6.913,6.913,0,0,0,.984,3.554l.919,1.531Z" transform="translate(-42.657 -74.667)" fill="navy"/>
        </g>
      </g>
      <g id="Group_731" data-name="Group 731" transform="translate(5.818)">
        <g id="Group_730" data-name="Group 730">
          <path id="Path_21037" data-name="Path 21037" d="M214.787,0a1.456,1.456,0,0,0-1.454,1.454V2.909a.364.364,0,0,0,.727,0V1.454a.727.727,0,0,1,1.454,0V2.909a.364.364,0,0,0,.727,0V1.454A1.456,1.456,0,0,0,214.787,0Z" transform="translate(-213.333)" fill="navy"/>
        </g>
      </g>
      <g id="Group_733" data-name="Group 733" transform="translate(5.454 14.544)">
        <g id="Group_732" data-name="Group 732" transform="translate(0)">
          <path id="Path_21038" data-name="Path 21038" d="M206.058,426.859a.364.364,0,1,0-.628.368,1.091,1.091,0,1,1-1.889,0,.364.364,0,1,0-.628-.368,1.819,1.819,0,1,0,3.146,0Z" transform="translate(-202.666 -426.68)" fill="navy"/>
        </g>
      </g>
    </g>
    <circle id="Ellipse_75" data-name="Ellipse 75" cx="8" cy="8" r="8" transform="translate(24 0.432)" fill="url(#linear-gradient)"/>
    <text id="_02" data-name="02" transform="translate(32 11.432)" fill="#fff" font-size="10" font-family="Roboto-Regular, Roboto"><tspan x="-5.615" y="0">02</tspan></text>
  </g>
</svg>
