<svg xmlns="http://www.w3.org/2000/svg" width="14" height="14.248" viewBox="0 0 14 14.248">
  <g id="ai-privacy-svgrepo-com" transform="translate(-0.421 -0.297)">
    <path id="ai--privacy_1_" d="M9.909,14.888a.631.631,0,0,1-.631-.631A.645.645,0,0,1,9.3,14.1l-2.19-1.252a.631.631,0,1,1-.839-.94L5.357,9.78a.645.645,0,0,1-.717-.625A.632.632,0,0,1,5.1,8.547V3.734a.631.631,0,1,1,.669-.989l3.509-1.4c0-.023,0-.047,0-.071a.631.631,0,1,1,1.262,0,.6.6,0,0,1,0,.071l3.509,1.4a.631.631,0,1,1,.67.989V8.547a.633.633,0,0,1,.464.608.645.645,0,0,1-.717.625l-.913,2.128a.63.63,0,1,1-.838.94L10.519,14.1a.6.6,0,0,1,.02.156A.631.631,0,0,1,9.909,14.888Zm0-.928a.3.3,0,1,0,.3.3A.3.3,0,0,0,9.909,13.96Zm0-.334a.629.629,0,0,1,.445.184l2.19-1.252a.628.628,0,0,1-.019-.157.644.644,0,0,1,.717-.625l.913-2.128a.63.63,0,0,1,.225-1.1V3.734a.632.632,0,0,1-.464-.608.6.6,0,0,1,0-.071l-3.509-1.4a.63.63,0,0,1-1.005,0L5.9,3.055c0,.023,0,.047,0,.071a.632.632,0,0,1-.464.608V8.547a.631.631,0,0,1,.226,1.1l.912,2.128a.644.644,0,0,1,.717.625.651.651,0,0,1-.019.157l2.19,1.252A.627.627,0,0,1,9.909,13.626ZM13.155,12.1a.3.3,0,1,0,.3.3A.3.3,0,0,0,13.155,12.1Zm-6.493,0a.3.3,0,1,0,.3.3A.3.3,0,0,0,6.662,12.1Zm7.884-3.247a.3.3,0,1,0,.3.3A.3.3,0,0,0,14.547,8.858Zm-9.276,0a.3.3,0,1,0,.3.3A.3.3,0,0,0,5.271,8.858Zm9.276-6.029a.3.3,0,1,0,.3.3A.3.3,0,0,0,14.547,2.829Zm-9.276,0a.3.3,0,1,0,.3.3A.3.3,0,0,0,5.271,2.829ZM9.909.974a.3.3,0,1,0,.3.3A.3.3,0,0,0,9.909.974Zm2.486,9.109h-.334v-.7a2.151,2.151,0,0,0-1.593-2.069.167.167,0,0,1-.03-.312,1.221,1.221,0,0,0-.53-2.323,1.221,1.221,0,0,0-.53,2.323.167.167,0,0,1-.029.312A2.151,2.151,0,0,0,7.757,9.387v.7H7.423v-.7a2.484,2.484,0,0,1,1.5-2.274,1.539,1.539,0,0,1-.576-1.2,1.558,1.558,0,1,1,3.117,0,1.54,1.54,0,0,1-.576,1.2,2.484,2.484,0,0,1,1.5,2.274Z" transform="translate(-2.488 -0.343)" fill="#d00010"/>
    <rect id="_Transparent_Rectangle" width="14" height="14" transform="translate(0.421 0.421)" fill="none"/>
  </g>
</svg>
