<svg id="Shape" xmlns="http://www.w3.org/2000/svg" width="16" height="16" viewBox="0 0 16 16">
  <path id="Shape-2" data-name="Shape" d="M2.17,11.645a7.954,7.954,0,0,1,0-3.3,1.743,1.743,0,0,0,1.916-.8A1.742,1.742,0,0,0,3.3,5.627,7.954,7.954,0,0,1,5.627,3.3a1.742,1.742,0,0,0,1.922.789,1.741,1.741,0,0,0,.8-1.916,7.954,7.954,0,0,1,3.3,0,1.743,1.743,0,0,0,.8,1.916A1.742,1.742,0,0,0,14.367,3.3a7.954,7.954,0,0,1,2.33,2.33,1.742,1.742,0,0,0-.789,1.922,1.741,1.741,0,0,0,1.916.8,7.954,7.954,0,0,1,0,3.3,1.743,1.743,0,0,0-1.916.8,1.742,1.742,0,0,0,.789,1.922,7.954,7.954,0,0,1-2.33,2.33,1.742,1.742,0,0,0-1.922-.789,1.741,1.741,0,0,0-.8,1.916,7.954,7.954,0,0,1-3.3,0,1.743,1.743,0,0,0-.8-1.916,1.742,1.742,0,0,0-1.922.789,7.954,7.954,0,0,1-2.33-2.33,1.742,1.742,0,0,0,.789-1.922,1.741,1.741,0,0,0-1.916-.8ZM3.6,10.165A2.823,2.823,0,0,1,5.355,14.4q.115.122.238.238A2.823,2.823,0,0,1,9.829,16.4q.168,0,.336,0A2.823,2.823,0,0,1,14.4,14.64q.122-.115.238-.238A2.823,2.823,0,0,1,16.4,10.165q0-.168,0-.336A2.823,2.823,0,0,1,14.64,5.592q-.116-.122-.238-.238A2.823,2.823,0,0,1,10.165,3.6q-.168,0-.336,0A2.823,2.823,0,0,1,5.592,5.355q-.122.115-.238.238A2.823,2.823,0,0,1,3.6,9.829Q3.594,10,3.6,10.165ZM10,12.4A2.4,2.4,0,1,1,12.4,10,2.4,2.4,0,0,1,10,12.4Zm0-1.6a.8.8,0,1,0-.8-.8A.8.8,0,0,0,10,10.8Z" transform="translate(-1.997 -1.997)" fill="#fff"/>
</svg>
